<!-- Generated by IcoMoon.io -->
<svg version="1.1" xmlns="http://www.w3.org/2000/svg" width="57" height="32" viewBox="0 0 57 32">
<title>Logo-5</title>
<path d="M14.66 24.148c0.123 0.152 0.188 0.343 0.185 0.539 0.006 0.128-0.016 0.255-0.066 0.373s-0.125 0.223-0.22 0.308c-0.238 0.181-0.533 0.269-0.831 0.249h-1.461v-3.416h1.431c0.283-0.019 0.563 0.061 0.793 0.227 0.092 0.078 0.166 0.176 0.214 0.287s0.070 0.232 0.064 0.352c0.008 0.188-0.051 0.374-0.166 0.522-0.111 0.136-0.265 0.23-0.435 0.267 0.194 0.036 0.369 0.139 0.494 0.292zM12.946 23.632h0.612c0.139 0.010 0.277-0.030 0.389-0.113 0.046-0.042 0.082-0.094 0.104-0.152s0.032-0.12 0.027-0.182c0.004-0.062-0.005-0.124-0.028-0.181s-0.057-0.11-0.102-0.152c-0.115-0.086-0.258-0.127-0.401-0.115h-0.602v0.896zM14.007 24.942c0.049-0.043 0.088-0.096 0.113-0.157s0.036-0.125 0.032-0.191c0.004-0.066-0.008-0.132-0.033-0.192s-0.065-0.115-0.115-0.158c-0.12-0.089-0.267-0.133-0.416-0.124h-0.642v0.94h0.65c0.146 0.008 0.291-0.033 0.411-0.118z"></path>
<path d="M17.585 25.617l-0.796-1.335h-0.299v1.335h-0.685v-3.416h1.296c0.327-0.023 0.65 0.081 0.902 0.29 0.181 0.185 0.291 0.43 0.308 0.689s-0.057 0.516-0.212 0.725c-0.16 0.184-0.378 0.307-0.618 0.347l0.848 1.365h-0.745zM16.49 23.816h0.56c0.389 0 0.583-0.172 0.583-0.517 0.004-0.070-0.007-0.141-0.031-0.207s-0.063-0.126-0.112-0.177c-0.123-0.103-0.281-0.152-0.44-0.139h-0.567l0.007 1.040z"></path>
<path d="M21.328 24.929h-1.365l-0.241 0.688h-0.718l1.253-3.378h0.776l1.248 3.378h-0.718l-0.236-0.688zM21.145 24.412l-0.499-1.442-0.499 1.442h0.997z"></path>
<path d="M26.014 25.617h-0.68l-1.524-2.323v2.323h-0.678v-3.416h0.678l1.524 2.336v-2.336h0.68v3.416z"></path>
<path d="M29.893 24.799c-0.141 0.258-0.355 0.468-0.615 0.602-0.296 0.15-0.624 0.224-0.956 0.215h-1.21v-3.416h1.21c0.331-0.009 0.659 0.063 0.956 0.21 0.26 0.132 0.475 0.339 0.615 0.596 0.14 0.278 0.213 0.585 0.213 0.896s-0.073 0.618-0.213 0.896zM29.115 24.717c0.194-0.227 0.301-0.516 0.301-0.815s-0.107-0.588-0.301-0.815c-0.235-0.206-0.54-0.31-0.851-0.29h-0.472v2.211h0.472c0.311 0.020 0.616-0.085 0.851-0.29z"></path>
<path d="M21.754 3.2c0 0 8.774 3.326 8.588 8.139v8.14c0 0-8.768-3.328-8.585-8.14l-0.003-8.139z"></path>
<path d="M38.159 17.573c1.657-1.145 3.574-1.854 5.575-2.063v-2.548c-2.305 0.892-4.261 2.51-5.575 4.611z"></path>
<path d="M37.163 18.341c1.356-2.742 3.708-4.858 6.57-5.912v-7.343c0 0-12.496 4.738-12.231 11.591v11.59c0 0 0.557-0.212 1.433-0.609 0-0.37 0-0.744 0.040-1.12 0.259-3.182 1.765-6.13 4.188-8.197z"></path>
<path d="M35.975 22.646c0.066-0.804 0.212-1.599 0.437-2.373-1.509 1.785-2.423 4-2.613 6.333-0.018 0.22-0.028 0.441-0.033 0.668 0.71-0.342 1.536-0.769 2.403-1.272-0.221-1.104-0.287-2.234-0.194-3.356z"></path>
<path d="M36.472 22.688c-0.083 1.015-0.031 2.037 0.155 3.039 3.414-2.051 7.25-5.22 7.102-9.050v-0.334c-2.439 0.274-4.721 1.345-6.495 3.047-0.415 1.055-0.672 2.166-0.761 3.298z"></path>
</svg>
