<!-- Generated by IcoMoon.io -->
<svg version="1.1" xmlns="http://www.w3.org/2000/svg" width="57" height="32" viewBox="0 0 57 32">
<title>Logo-2</title>
<path d="M20.451 27.090c0.008 0 0.016 0.002 0.023 0.005s0.014 0.008 0.019 0.013l0.11 0.115c-0.085 0.093-0.191 0.168-0.309 0.218-0.138 0.055-0.288 0.082-0.438 0.078-0.141 0.003-0.281-0.022-0.412-0.073-0.118-0.047-0.223-0.117-0.31-0.207-0.088-0.093-0.157-0.201-0.2-0.319-0.048-0.132-0.072-0.27-0.070-0.409-0.002-0.14 0.024-0.279 0.075-0.41 0.048-0.119 0.12-0.227 0.213-0.319 0.094-0.090 0.206-0.161 0.329-0.208 0.135-0.050 0.279-0.075 0.424-0.073 0.135-0.003 0.268 0.020 0.394 0.067 0.109 0.045 0.208 0.107 0.295 0.184l-0.092 0.123c-0.006 0.009-0.014 0.016-0.023 0.022-0.011 0.007-0.024 0.010-0.037 0.009-0.014-0.001-0.028-0.005-0.040-0.013l-0.049-0.033-0.069-0.042c-0.030-0.016-0.060-0.029-0.092-0.041-0.041-0.014-0.082-0.025-0.125-0.033-0.054-0.009-0.108-0.014-0.163-0.013-0.104-0.001-0.208 0.017-0.305 0.055-0.090 0.035-0.171 0.087-0.239 0.154-0.068 0.071-0.121 0.155-0.155 0.246-0.039 0.104-0.058 0.214-0.056 0.324-0.002 0.112 0.017 0.224 0.056 0.329 0.034 0.090 0.085 0.173 0.152 0.244 0.063 0.066 0.141 0.118 0.228 0.152 0.090 0.035 0.186 0.053 0.283 0.052 0.056 0.001 0.112-0.003 0.167-0.010 0.090-0.011 0.177-0.040 0.254-0.088 0.038-0.024 0.075-0.051 0.108-0.081 0.014-0.013 0.033-0.020 0.052-0.021z"></path>
<path d="M23.62 26.512c0.002 0.139-0.023 0.276-0.074 0.407-0.045 0.118-0.115 0.226-0.207 0.316s-0.202 0.161-0.324 0.207c-0.269 0.098-0.566 0.098-0.834 0-0.121-0.047-0.231-0.118-0.322-0.208-0.091-0.092-0.162-0.2-0.208-0.319-0.099-0.263-0.099-0.551 0-0.814 0.047-0.119 0.118-0.228 0.208-0.32 0.092-0.087 0.202-0.155 0.322-0.2 0.268-0.099 0.566-0.099 0.834 0 0.122 0.047 0.232 0.118 0.324 0.208 0.090 0.091 0.161 0.198 0.207 0.315 0.051 0.131 0.076 0.27 0.074 0.409zM23.332 26.512c0.002-0.111-0.015-0.221-0.052-0.327-0.031-0.090-0.081-0.173-0.147-0.244-0.064-0.067-0.144-0.12-0.232-0.154-0.195-0.071-0.411-0.071-0.606 0-0.088 0.034-0.167 0.087-0.232 0.154-0.067 0.071-0.117 0.154-0.148 0.244-0.070 0.213-0.070 0.441 0 0.654 0.031 0.090 0.081 0.174 0.148 0.244 0.064 0.067 0.144 0.119 0.232 0.153 0.196 0.070 0.411 0.070 0.606 0 0.088-0.034 0.167-0.086 0.232-0.153 0.066-0.071 0.116-0.154 0.147-0.244 0.037-0.105 0.054-0.216 0.052-0.327z"></path>
<path d="M25.782 26.855l0.029 0.073c0.011-0.026 0.021-0.050 0.032-0.073 0.011-0.025 0.022-0.049 0.036-0.072l0.701-1.214c0.014-0.021 0.026-0.034 0.040-0.038 0.019-0.005 0.038-0.008 0.058-0.006h0.207v1.975h-0.246v-1.452c0-0.018 0-0.039 0-0.061-0.001-0.023-0.001-0.045 0-0.068l-0.705 1.231c-0.009 0.018-0.023 0.034-0.041 0.045s-0.039 0.017-0.060 0.016h-0.040c-0.021 0-0.042-0.005-0.060-0.016s-0.032-0.027-0.041-0.045l-0.726-1.239c0 0.024 0 0.047 0 0.071s0 0.044 0 0.063v1.452h-0.237v-1.971h0.207c0.019-0.001 0.039 0.001 0.058 0.006 0.017 0.008 0.031 0.021 0.038 0.038l0.716 1.215c0.014 0.022 0.026 0.046 0.036 0.071z"></path>
<path d="M28.42 26.757v0.74h-0.274v-1.972h0.612c0.116-0.002 0.231 0.012 0.342 0.043 0.089 0.024 0.171 0.066 0.241 0.123 0.061 0.053 0.108 0.12 0.137 0.193 0.032 0.080 0.048 0.166 0.047 0.252 0.001 0.087-0.016 0.172-0.051 0.252-0.033 0.076-0.084 0.143-0.148 0.197-0.070 0.059-0.153 0.104-0.243 0.131-0.107 0.032-0.218 0.048-0.331 0.046l-0.332-0.005zM28.42 26.545h0.332c0.072 0.001 0.144-0.009 0.213-0.030 0.057-0.018 0.109-0.047 0.154-0.085 0.041-0.036 0.073-0.081 0.093-0.131 0.022-0.053 0.034-0.109 0.033-0.166 0.003-0.055-0.006-0.11-0.028-0.161s-0.054-0.097-0.096-0.135c-0.105-0.078-0.236-0.116-0.369-0.106h-0.332v0.813z"></path>
<path d="M32.107 27.499h-0.217c-0.022 0.001-0.043-0.006-0.060-0.018-0.016-0.012-0.028-0.028-0.036-0.046l-0.187-0.477h-0.937l-0.193 0.477c-0.007 0.017-0.019 0.033-0.034 0.044-0.017 0.013-0.039 0.020-0.062 0.020h-0.217l0.823-1.975h0.285l0.834 1.975zM30.749 26.766h0.774l-0.326-0.804c-0.025-0.060-0.046-0.122-0.062-0.186l-0.032 0.103c-0.010 0.031-0.021 0.060-0.030 0.084l-0.324 0.802z"></path>
<path d="M33.292 25.534c0.016 0.009 0.031 0.021 0.041 0.035l1.2 1.489c0-0.024 0-0.047 0-0.069s0-0.044 0-0.065v-1.398h0.246v1.975h-0.137c-0.019 0.001-0.039-0.003-0.056-0.012-0.017-0.009-0.032-0.022-0.044-0.037l-1.199-1.487c0.001 0.023 0.001 0.045 0 0.068 0 0.022 0 0.042 0 0.060v1.408h-0.246v-1.975h0.145c0.017-0 0.034 0.003 0.049 0.009z"></path>
<path d="M36.801 26.714v0.784h-0.274v-0.784l-0.759-1.189h0.246c0.021-0.001 0.042 0.005 0.059 0.017 0.015 0.013 0.027 0.028 0.037 0.044l0.475 0.767c0.019 0.033 0.036 0.063 0.049 0.091s0.025 0.056 0.034 0.084l0.036-0.085c0.013-0.031 0.029-0.061 0.047-0.090l0.468-0.772c0.010-0.015 0.022-0.029 0.036-0.042 0.016-0.014 0.037-0.021 0.059-0.020h0.248l-0.76 1.195z"></path>
<path d="M25.646 22.21c0.119 0.014 0.24 0.026 0.362 0.037 1.851-0.789 3.417-2.080 4.502-3.712s1.641-3.533 1.599-5.464l-2.040-1.943c0.415 2.056 0.221 4.182-0.56 6.14s-2.118 3.669-3.862 4.944z"></path>
<path d="M24.917 22.12l0.055 0.010c1.864-1.27 3.284-3.043 4.079-5.091s0.926-4.275 0.377-6.394l-2.905-2.768c1.175 2.275 1.648 4.822 1.364 7.343s-1.314 4.914-2.969 6.9z"></path>
<path d="M34.771 15.353c-0.494 2.122-1.692 4.036-3.419 5.458-0.504 0.417-1.048 0.789-1.624 1.111 1.406-0.394 2.697-1.089 3.776-2.034s1.915-2.112 2.445-3.413l-1.178-1.121z"></path>
<path d="M34.309 15.040l-1.678-1.598c-0.032 1.822-0.576 3.603-1.575 5.158s-2.417 2.826-4.106 3.681h0.008c0.376-0 0.752-0.022 1.126-0.064 1.579-0.614 2.973-1.59 4.059-2.843s1.83-2.741 2.165-4.334z"></path>
<path d="M25.16 6.71l-2.002-1.909c-1.789 0.659-3.328 1.817-4.415 3.322s-1.672 3.289-1.677 5.117v0c0.007 2.019 0.72 3.979 2.027 5.568s3.133 2.718 5.19 3.208c1.836-2.131 2.91-4.764 3.068-7.516s-0.61-5.481-2.191-7.79z"></path>
<path d="M38.933 14.746c-0.007-2.396-1.009-4.692-2.788-6.386s-4.188-2.649-6.703-2.656c-1.162-0.001-2.314 0.203-3.398 0.603l12.254 11.675c0.42-1.032 0.635-2.129 0.634-3.236z"></path>
</svg>
