<!-- Generated by IcoMoon.io -->
<svg version="1.1" xmlns="http://www.w3.org/2000/svg" width="57" height="32" viewBox="0 0 57 32">
<title>Logo-6</title>
<path d="M28.662 15.122c-0.223-0.325-0.33-0.71-0.304-1.097v-1.591c0-0.488 0.101-0.858 0.303-1.112s0.548-0.38 1.039-0.379c0.462 0 0.789 0.108 0.983 0.324 0.211 0.275 0.314 0.612 0.291 0.952v0.374h-0.826v-0.379c0.003-0.124-0.005-0.248-0.024-0.371-0.012-0.084-0.053-0.162-0.118-0.22-0.085-0.063-0.192-0.094-0.299-0.086-0.113-0.008-0.225 0.024-0.315 0.091-0.072 0.065-0.12 0.15-0.137 0.243-0.024 0.13-0.035 0.261-0.032 0.393v1.931c-0.013 0.186 0.023 0.373 0.106 0.542 0.041 0.057 0.098 0.103 0.165 0.131s0.14 0.039 0.213 0.030c0.106 0.008 0.211-0.023 0.292-0.087 0.067-0.063 0.111-0.146 0.123-0.235 0.019-0.128 0.028-0.257 0.026-0.387v-0.392h0.826v0.358c0.023 0.354-0.077 0.705-0.285 1-0.19 0.236-0.513 0.354-0.988 0.354s-0.834-0.126-1.038-0.388z"></path>
<path d="M32.099 15.138c-0.209-0.248-0.313-0.608-0.313-1.086v-1.673c0-0.473 0.104-0.83 0.313-1.073s0.557-0.364 1.046-0.362c0.485 0 0.832 0.121 1.041 0.362 0.209 0.243 0.315 0.6 0.315 1.073v1.673c0 0.473-0.106 0.835-0.318 1.084s-0.557 0.374-1.038 0.374-0.836-0.126-1.046-0.372zM33.53 14.737c0.075-0.155 0.109-0.325 0.099-0.495v-2.049c0.010-0.167-0.024-0.334-0.097-0.486-0.042-0.059-0.1-0.105-0.169-0.133s-0.144-0.038-0.218-0.028c-0.074-0.010-0.15 0-0.218 0.029s-0.127 0.075-0.17 0.133c-0.075 0.152-0.109 0.318-0.099 0.486v2.058c-0.010 0.17 0.024 0.34 0.099 0.495 0.048 0.052 0.108 0.094 0.174 0.123s0.139 0.043 0.212 0.043 0.146-0.015 0.212-0.043c0.067-0.029 0.126-0.070 0.174-0.123v-0.010z"></path>
<path d="M35.494 10.992h0.889l0.668 3.087 0.684-3.087h0.865l0.087 4.456h-0.639l-0.068-3.097-0.66 3.097h-0.513l-0.684-3.108-0.063 3.108h-0.646l0.080-4.456z"></path>
<path d="M39.683 10.992h1.385c0.798 0 1.196 0.422 1.196 1.265 0 0.808-0.42 1.211-1.26 1.21h-0.472v1.98h-0.855l0.005-4.456zM40.866 12.897c0.084 0.010 0.17 0.003 0.251-0.021s0.156-0.065 0.219-0.119c0.098-0.15 0.141-0.327 0.123-0.503 0.004-0.136-0.009-0.272-0.041-0.405-0.012-0.044-0.034-0.086-0.063-0.122s-0.066-0.067-0.108-0.090c-0.119-0.054-0.25-0.078-0.381-0.071h-0.332v1.332h0.332z"></path>
<path d="M43.496 10.992h0.918l0.942 4.456h-0.796l-0.186-1.027h-0.819l-0.191 1.027h-0.808l0.942-4.456zM44.281 13.905l-0.32-1.87-0.32 1.87h0.639z"></path>
<path d="M46.117 10.992h0.598l1.145 2.542v-2.542h0.709v4.456h-0.569l-1.152-2.654v2.654h-0.733l0.002-4.456z"></path>
<path d="M50.231 13.749l-0.952-2.751h0.802l0.581 1.767 0.545-1.767h0.785l-0.94 2.751v1.699h-0.82v-1.699z"></path>
<path d="M29.981 17.397v0.233h-0.697v1.811h-0.292v-1.811h-0.701v-0.233h1.691z"></path>
<path d="M32.168 19.441h-0.226c-0.023 0.001-0.046-0.006-0.063-0.019-0.017-0.012-0.030-0.028-0.038-0.047l-0.202-0.485h-0.968l-0.202 0.485c-0.006 0.020-0.016 0.039-0.031 0.055-0.018 0.014-0.040 0.020-0.063 0.019h-0.226l0.855-2.044h0.297l0.865 2.036zM30.752 18.682h0.807l-0.342-0.832c-0.025-0.063-0.046-0.127-0.063-0.193-0.012 0.039-0.022 0.076-0.032 0.108l-0.031 0.086-0.338 0.83z"></path>
<path d="M33.641 19.24c0.054 0.003 0.107 0.003 0.161 0 0.046-0.004 0.092-0.013 0.137-0.024 0.042-0.010 0.083-0.022 0.123-0.037 0.038-0.015 0.075-0.032 0.115-0.050v-0.46h-0.342c-0.008 0-0.017-0.001-0.025-0.004s-0.015-0.007-0.021-0.013c-0.006-0.005-0.010-0.010-0.013-0.017s-0.004-0.013-0.004-0.020v-0.157h0.663v0.783c-0.054 0.037-0.111 0.069-0.171 0.097-0.061 0.028-0.124 0.052-0.19 0.070-0.070 0.019-0.141 0.034-0.214 0.042-0.083 0.009-0.166 0.013-0.25 0.013-0.147 0.001-0.294-0.025-0.431-0.076-0.128-0.049-0.244-0.121-0.342-0.214-0.095-0.093-0.17-0.203-0.22-0.324-0.054-0.135-0.081-0.279-0.079-0.424-0.002-0.146 0.024-0.29 0.077-0.427 0.049-0.121 0.124-0.231 0.22-0.324 0.098-0.092 0.214-0.164 0.342-0.212 0.146-0.052 0.302-0.078 0.458-0.076 0.080-0 0.159 0.006 0.238 0.018 0.069 0.011 0.138 0.028 0.203 0.052 0.060 0.021 0.117 0.048 0.171 0.081 0.052 0.032 0.102 0.068 0.149 0.107l-0.082 0.126c-0.006 0.012-0.016 0.021-0.028 0.028s-0.025 0.011-0.039 0.011c-0.019-0.001-0.037-0.006-0.053-0.016-0.026-0.013-0.053-0.029-0.084-0.049-0.036-0.022-0.075-0.040-0.114-0.055-0.051-0.019-0.104-0.035-0.157-0.045-0.072-0.012-0.144-0.018-0.217-0.018-0.113-0.001-0.225 0.018-0.33 0.057-0.095 0.036-0.181 0.091-0.251 0.162-0.071 0.073-0.125 0.16-0.159 0.254-0.076 0.221-0.076 0.46 0 0.681 0.037 0.096 0.096 0.184 0.171 0.257 0.070 0.070 0.155 0.125 0.25 0.162 0.109 0.035 0.224 0.049 0.338 0.040z"></path>
<path d="M36.365 19.207h0.933v0.233h-1.219v-2.044h0.292l-0.007 1.811z"></path>
<path d="M38.27 19.44h-0.292v-2.044h0.292v2.044z"></path>
<path d="M39.357 17.406c0.017 0.009 0.032 0.022 0.044 0.037l1.249 1.541c-0.002-0.024-0.002-0.049 0-0.073 0-0.023 0-0.045 0-0.066v-1.456h0.255v2.052h-0.147c-0.022 0.002-0.044-0.002-0.063-0.011-0.018-0.010-0.033-0.023-0.046-0.039l-1.248-1.539c0 0.024 0 0.047 0 0.070s0 0.044 0 0.063v1.456h-0.244v-2.044h0.152c0.016 0 0.033 0.003 0.048 0.010z"></path>
<path d="M43.057 17.397v0.225h-1.036v0.675h0.839v0.217h-0.839v0.698h1.036v0.225h-1.337v-2.039h1.337z"></path>
<path d="M12.429 4.775l12.979 3.489v12.225l-12.979-3.487v-12.227zM11.596 3.733v13.863l14.642 3.937v-13.861l-14.642-3.939z"></path>
<path d="M19.443 27.968l-14.643-3.94v-13.861l14.643 3.939v13.863z"></path>
<path d="M11.839 4.618l12.809 3.445-5.448 5.159-12.811-3.447 5.449-5.157zM11.596 3.733l-6.796 6.434 14.643 3.938 6.794-6.434-14.642-3.938z"></path>
<path d="M20.267 27.188l5.971-5.654-5.971-1.607v7.26z"></path>
</svg>
