<!-- Generated by IcoMoon.io -->
<svg version="1.1" xmlns="http://www.w3.org/2000/svg" width="45" height="32" viewBox="0 0 45 32">
<title>envelope</title>
<path d="M40.6 0h-36.4c-2.316 0-4.2 1.794-4.2 4v24c0 2.206 1.884 4 4.2 4h36.4c2.316 0 4.2-1.794 4.2-4v-24c0-2.206-1.884-4-4.2-4zM40.6 2.667c0.19 0 0.371 0.038 0.537 0.103l-18.737 15.466-18.737-15.466c0.165-0.066 0.346-0.103 0.537-0.103h36.4zM40.6 29.333h-36.4c-0.772 0-1.4-0.598-1.4-1.333v-22.413l18.683 15.421c0.264 0.217 0.591 0.326 0.917 0.326s0.654-0.108 0.917-0.326l18.683-15.421v22.413c0 0.736-0.628 1.333-1.4 1.333z"></path>
</svg>
